<svg xmlns="http://www.w3.org/2000/svg" width="900" height="620" viewBox="0 0 900 620">
  <rect width="900" height="620" fill="#f3eee6"/>
  <circle cx="206" cy="164" r="142" fill="#2d5d73" opacity="0.32"/>
  <circle cx="642" cy="192" r="190" fill="#be5e3b" opacity="0.28"/>
  <circle cx="482" cy="432" r="154" fill="#6f5770" opacity="0.28"/>
  <g fill="none" stroke-linecap="round" stroke-width="18">
    <path d="M122 432c126-156 210-204 348-132 112 59 189 46 306-112" stroke="#2d5d73"/>
    <path d="M120 484c126-126 255-136 374-44 98 76 166 58 284-28" stroke="#be5e3b"/>
    <path d="M142 244c136 60 242 58 374-26 92-58 164-69 242-24" stroke="#111417" opacity="0.28"/>
  </g>
  <rect x="284" y="168" width="340" height="286" fill="#fffdf8" opacity="0.86" stroke="#111417" stroke-width="6"/>
  <path d="M332 246h244M332 314h196M332 382h248" stroke="#d8cfc0" stroke-width="16" stroke-linecap="round"/>
</svg>
